# xmcd CD database file
#
# Track frame offsets:
#	150
#	4397
#	23320
#	33778
#	48334
#	62597
#	78502
#	97918
#	111160
#
# Disc length: 1794 seconds
#
# Revision: 1
# Processed by: cddbd v1.5PL3 Copyright (c) Steve Scherf et al.
# Submitted via: CDex 1.51
#
DISCID=5c070009
DTITLE=Norway² - Geometry Not Geography
DYEAR=1900
DGENRE=
TTITLE0=Norway Squared
TTITLE1=It's Only Pop
TTITLE2=For So Long
TTITLE3=Down To Earth
TTITLE4=My Synthesiser
TTITLE5=From One Ballad To Another
TTITLE6=Not Tragedy
TTITLE7=Dead Without The Drums
TTITLE8=Watch Out
EXTD=
EXTT0=
EXTT1=
EXTT2=
EXTT3=
EXTT4=
EXTT5=
EXTT6=
EXTT7=
EXTT8=
PLAYORDER=
